<svg width="16" height="16" viewBox="0 0 16 16" fill="none" xmlns="http://www.w3.org/2000/svg">
<path fill-rule="evenodd" clip-rule="evenodd" d="M12 2.66663H4.00001C3.26667 2.66663 2.66667 3.26663 2.66667 3.99996V12C2.66667 12.7333 3.26667 13.3333 4.00001 13.3333H12C12.7333 13.3333 13.3333 12.7333 13.3333 12V3.99996C13.3333 3.26663 12.7333 2.66663 12 2.66663ZM6.33334 7.66663C6.33334 8.21996 5.88667 8.66663 5.33334 8.66663H4.66667V9.49996C4.66667 9.77329 4.44 9.99996 4.16667 9.99996C3.89334 9.99996 3.66667 9.77329 3.66667 9.49996V6.66663C3.66667 6.29996 3.96667 5.99996 4.33334 5.99996H5.33334C5.88667 5.99996 6.33334 6.44663 6.33334 6.99996V7.66663ZM9.66667 8.99996C9.66667 9.55329 9.22 9.99996 8.66667 9.99996H7.33334C7.14667 9.99996 7 9.85329 7 9.66663V6.33329C7 6.14663 7.14667 5.99996 7.33334 5.99996H8.66667C9.22 5.99996 9.66667 6.44663 9.66667 6.99996V8.99996ZM12.3333 6.49996C12.3333 6.77329 12.1067 6.99996 11.8333 6.99996H11.3333V7.66663H11.8333C12.1067 7.66663 12.3333 7.89329 12.3333 8.16663C12.3333 8.43996 12.1067 8.66663 11.8333 8.66663H11.3333V9.49996C11.3333 9.77329 11.1067 9.99996 10.8333 9.99996C10.56 9.99996 10.3333 9.77329 10.3333 9.49996V6.66663C10.3333 6.29996 10.6333 5.99996 11 5.99996H11.8333C12.1067 5.99996 12.3333 6.22663 12.3333 6.49996ZM4.66667 7.66663H5.33334V6.99996H4.66667V7.66663ZM8 8.99996H8.66667V6.99996H8V8.99996Z" fill="white"/>
</svg>
